{
    "asset": {
        "version": "2.0",
        "generator": "Open Asset Import Library (assimp v5.4.fa8495a9)"
    },
    "extensionsUsed": [
        "KHR_materials_specular",
        "KHR_materials_volume",
        "FB_ngon_encoding"
    ],
    "accessors": [
        {
            "bufferView": 0,
            "byteOffset": 0,
            "componentType": 5126,
            "count": 163799,
            "type": "VEC3",
            "max": [
                23.775014877319336,
                31.559955596923828,
                43.47032165527344
            ],
            "min": [
                -23.772775650024414,
                -31.556400299072266,
                0.0
            ]
        },
        {
            "bufferView": 1,
            "byteOffset": 0,
            "componentType": 5126,
            "count": 163799,
            "type": "VEC3",
            "max": [
                1.0,
                0.9999845623970032,
                0.9999956488609314
            ],
            "min": [
                -0.9999991059303284,
                -0.9991946220397949,
                -0.9999117255210876
            ]
        },
        {
            "bufferView": 2,
            "byteOffset": 0,
            "componentType": 5126,
            "count": 163799,
            "type": "VEC2",
            "max": [
                0.9922513365745544,
                0.9990234375
            ],
            "min": [
                0.0,
                0.24023818969726563
            ]
        },
        {
            "bufferView": 3,
            "byteOffset": 0,
            "componentType": 5125,
            "count": 942693,
            "type": "SCALAR",
            "max": [
                163798
            ],
            "min": [
                0
            ]
        }
    ],
    "buffers": [
        {
            "byteLength": 9012340,
            "uri": "0824.bin"
        }
    ],
    "bufferViews": [
        {
            "buffer": 0,
            "byteOffset": 0,
            "byteLength": 1965588,
            "target": 34962
        },
        {
            "buffer": 0,
            "byteOffset": 1965588,
            "byteLength": 1965588,
            "target": 34962
        },
        {
            "buffer": 0,
            "byteOffset": 3931176,
            "byteLength": 1310392,
            "target": 34962
        },
        {
            "buffer": 0,
            "byteOffset": 5241568,
            "byteLength": 3770772,
            "target": 34963
        }
    ],
    "images": [
        {
            "uri": "./0824.jpg"
        }
    ],
    "materials": [
        {
            "name": "material",
            "pbrMetallicRoughness": {
                "baseColorTexture": {
                    "index": 0
                },
                "metallicFactor": 0.0
            },
            "doubleSided": true,
            "extensions": {
                "KHR_materials_specular": {
                    "specularFactor": 1.0
                }
            }
        }
    ],
    "meshes": [
        {
            "primitives": [
                {
                    "mode": 4,
                    "material": 0,
                    "indices": 3,
                    "attributes": {
                        "POSITION": 0,
                        "NORMAL": 1,
                        "TEXCOORD_0": 2
                    }
                }
            ]
        }
    ],
    "nodes": [
        {
            "mesh": 0
        }
    ],
    "samplers": [
        {}
    ],
    "scenes": [
        {
            "nodes": [
                0
            ]
        }
    ],
    "textures": [
        {
            "source": 0,
            "sampler": 0
        }
    ],
    "scene": 0
}